<?xml version="1.0" standalone="no"?>
<!DOCTYPE svg PUBLIC "-//W3C//DTD SVG 20010904//EN"
 "http://www.w3.org/TR/2001/REC-SVG-20010904/DTD/svg10.dtd">
<svg version="1.0" xmlns="http://www.w3.org/2000/svg"
 width="400.000000pt" height="400.000000pt" viewBox="0 0 400.000000 400.000000"
 preserveAspectRatio="xMidYMid meet">
<metadata>
Created by potrace 1.14, written by Peter Selinger 2001-2017
</metadata>
<g transform="translate(0.000000,400.000000) scale(0.100000,-0.100000)"
fill="#000000" stroke="none">
<path d="M1380 3920 l0 -80 -145 0 c-164 0 -146 12 -149 -95 l-1 -50 -80 -5
-80 -5 0 -225 0 -225 -75 -5 -75 -5 -3 -157 -3 -158 -75 0 -75 0 3 -72 3 -73
75 0 75 0 -1 65 c-1 39 3 68 10 72 6 4 39 8 74 8 l62 0 2 43 c1 23 0 58 -1 79
l-2 36 71 4 c40 1 76 1 81 -2 4 -3 9 -39 11 -80 l3 -75 78 -3 c86 -3 80 -9 77
80 -3 87 -11 84 165 80 l155 -3 0 71 c0 79 -6 74 96 70 23 -1 45 3 49 9 7 13
113 13 137 0 12 -7 16 -20 13 -56 -5 -91 -3 -92 133 -92 127 0 172 -6 173 -25
5 -78 -5 -272 -14 -278 -7 -4 -40 -7 -74 -6 -59 2 -63 4 -68 29 -3 14 -5 30
-4 35 1 5 1 28 0 51 l-1 42 -222 -2 -223 -2 -5 -75 -5 -75 -149 3 c-116 3
-151 1 -157 -10 -5 -7 -9 -77 -9 -155 l0 -142 -72 -3 -73 -3 -3 -72 -3 -73
-79 0 -79 0 -3 -72 -3 -73 -147 -3 c-168 -3 -151 9 -148 -103 2 -66 -1 -68
-93 -66 l-66 2 -3 -75 -3 -75 -77 -3 -78 -3 -2 -227 -3 -227 -55 -2 c-30 0
-61 -2 -67 -2 -10 -1 -13 -54 -13 -231 l0 -230 -80 0 -80 0 0 -385 0 -385 68
0 c40 0 73 -5 80 -12 7 -7 12 -39 12 -75 l0 -63 1695 0 1695 0 0 63 c0 34 4
67 8 74 4 7 37 13 77 15 l70 3 3 537 2 537 -77 3 -78 3 -3 233 -2 232 -80 0
-80 0 0 145 c0 80 -3 145 -7 146 -5 0 -37 1 -73 2 l-65 2 -5 80 -5 80 -152 3
-152 3 -3 72 -3 72 -147 3 -148 3 0 154 0 155 -80 0 -80 0 0 59 c0 90 -1 91
-86 91 l-74 0 0 70 0 71 153 -3 152 -3 5 -70 5 -70 148 -3 c135 -2 147 -1 148
15 0 10 1 39 1 64 0 26 3 51 7 57 4 6 40 12 81 14 l75 3 0 80 0 80 -80 0 -80
0 -5 -80 -5 -80 -138 -3 c-105 -2 -138 0 -141 10 -3 7 -7 111 -10 230 l-6 217
76 3 75 3 2 80 2 80 -72 3 -73 3 0 74 0 75 -69 0 c-101 0 -101 0 -101 81 l0
68 -147 3 -148 3 -3 78 -3 77 -389 0 -390 0 0 -80z m774 -432 c7 -66 6 -87 -7
-95 -6 -4 -81 -8 -167 -9 -85 -2 -182 -4 -215 -6 l-60 -3 -3 64 c-2 35 -1 70
2 77 4 11 49 14 225 14 l220 0 5 -42z m-154 -952 l0 -76 -227 2 -228 3 -3 58
c-2 32 1 64 7 71 7 8 74 12 230 15 l221 2 0 -75z m-465 -158 c0 -37 3 -70 7
-73 3 -3 102 -8 219 -11 118 -3 219 -7 226 -9 14 -5 23 27 23 88 l0 49 33 -4
c17 -3 43 -1 57 3 18 5 9 7 -32 8 -32 1 -58 6 -58 11 0 6 28 10 65 10 l65 0 0
-64 c0 -36 5 -68 11 -71 7 -5 10 -147 7 -469 l-3 -461 75 -5 75 -5 0 -70 0
-70 -147 -3 -148 -3 0 71 c0 47 -4 72 -12 75 -7 3 -76 6 -153 8 l-140 2 -3 73
c-3 71 -3 72 -30 73 -15 0 -46 2 -69 2 -23 1 -45 6 -50 10 -4 5 -8 37 -8 72
l0 64 -75 3 -75 3 0 88 c0 48 2 219 3 381 2 332 -6 305 86 296 l50 -5 1 -67z
m3 -1080 l3 -78 74 0 74 0 3 -72 3 -73 153 -3 152 -3 0 -79 0 -79 -227 2
c-176 1 -228 -1 -229 -10 -1 -7 -2 -40 -3 -73 l-1 -60 -77 0 -76 0 6 122 c4
66 7 204 7 305 l0 184 68 -3 67 -3 3 -77z m1542 -453 l0 -225 -75 0 -75 0 0
225 0 225 75 0 75 0 0 -225z m-767 66 c4 -1 7 -31 5 -68 l-3 -68 -80 0 -80 0
-3 67 -3 67 38 3 c33 3 101 2 126 -1z m-1545 -73 l3 -68 -71 0 -70 0 0 63 c0
35 3 67 7 71 4 4 34 6 68 4 l60 -3 3 -67z"/>
<path d="M2115 2350 c-3 -5 -1 -10 4 -10 6 0 11 5 11 10 0 6 -2 10 -4 10 -3 0
-8 -4 -11 -10z"/>
<path d="M1992 2235 c0 -16 2 -22 5 -12 2 9 2 23 0 30 -3 6 -5 -1 -5 -18z"/>
<path d="M1850 2230 c0 -5 7 -10 16 -10 8 0 12 5 9 10 -3 6 -10 10 -16 10 -5
0 -9 -4 -9 -10z"/>
<path d="M1780 2206 c0 -26 21 -29 43 -7 l21 21 -32 0 c-21 0 -32 -5 -32 -14z"/>
<path d="M1991 2184 c0 -11 3 -14 6 -6 3 7 2 16 -1 19 -3 4 -6 -2 -5 -13z"/>
<path d="M1601 3163 c0 -23 -6 -43 -13 -45 -7 -3 -9 -11 -3 -24 8 -19 8 -19
13 1 2 11 7 25 11 30 4 6 4 26 0 45 l-6 35 -2 -42z"/>
<path d="M1666 3111 c-4 -7 -5 -15 -2 -18 9 -9 19 4 14 18 -4 11 -6 11 -12 0z"/>
</g>
</svg>
